<?xml version="1.0" encoding="utf-8"?><svg version="1.1" id="Layer_1" xmlns="http://www.w3.org/2000/svg" xmlns:xlink="http://www.w3.org/1999/xlink" x="0px" y="0px" viewBox="0 0 122.88 81.49" style="enable-background:new 0 0 122.88 81.49" xml:space="preserve"><g><path d="M27.41,64.65c1.91,0.45,9.12,0.95,12.04,0.94l3.64-33.71c-0.94-1.01-1.66-2-2.16-2.98c-1.65-3.16-1.35-6.11,0.15-8.78 c1.3-2.31,3.53-4.31,6.13-6c3.94-2.57,8.8-4.47,12.19-5.52c1.69-0.53,3.5-0.98,5.41-1.35c-1.74-0.1-2.87-0.19-3.05-0.22 c-6.49,0.04-12.81,0.83-17.86,2.41c-3.06,0.96-7.41,2.65-10.85,4.89c-1.92,1.25-3.52,2.64-4.35,4.12 c-0.62,1.11-0.75,2.33-0.07,3.63c0.39,0.76,1.01,1.55,1.88,2.38c0.69,0.56,1.09,1.44,0.99,2.39L27.41,64.65L27.41,64.65z M92.29,33.06c1.07,0.66,1.28,2.26,0.47,3.58c-0.81,1.32-2.34,1.86-3.41,1.2c-1.07-0.66-1.28-2.26-0.47-3.58 C89.69,32.94,91.22,32.4,92.29,33.06L92.29,33.06z M83.45,27.72c0.4,0.24,0.47,0.84,0.17,1.32c-0.3,0.49-0.86,0.69-1.26,0.44 c-0.4-0.24-0.47-0.84-0.17-1.32C82.49,27.68,83.05,27.48,83.45,27.72L83.45,27.72z M80.18,37.72c0.78,0.48,0.93,1.64,0.34,2.6 c-0.59,0.96-1.69,1.35-2.47,0.87c-0.78-0.48-0.93-1.64-0.34-2.6C78.3,37.63,79.4,37.24,80.18,37.72L80.18,37.72z M97.81,42.51 c0.78,0.48,0.93,1.64,0.34,2.6c-0.59,0.96-1.69,1.35-2.47,0.87s-0.93-1.64-0.34-2.6C95.93,42.42,97.04,42.03,97.81,42.51 L97.81,42.51z M105.9,35.06c0.8,0.49,0.96,1.7,0.35,2.69c-0.61,0.99-1.76,1.4-2.56,0.9c-0.8-0.49-0.96-1.7-0.35-2.69 C103.95,34.97,105.1,34.57,105.9,35.06L105.9,35.06z M102.04,27.01c0.8,0.49,0.96,1.7,0.35,2.69c-0.61,0.99-1.76,1.4-2.56,0.9 c-0.8-0.49-0.96-1.7-0.35-2.69C100.09,26.92,101.24,26.52,102.04,27.01L102.04,27.01z M38.87,71.05l-14.52,0.69 c-8.25,0.39-12.78-2.41-21.51-1.99C1.34,69.82,0.07,68.67,0,67.18C0,67.04,0,66.9,0.01,66.76l0,0l4.45-41.2 c-0.94-1.01-1.66-2-2.16-2.98c-1.65-3.16-1.35-6.11,0.15-8.78C9.16,1.88,22.67,0.49,34.91,0.25c4.28-0.27,8.86-0.32,13.4-0.17 c3.73,0.13,7.45,0.4,10.98,0.81c13.77,0.91,26.69,2.69,32.24,4.99c0.62,0.25,1,0.48,1.18,0.68c5.9,0.71,11.49,2.01,16.03,3.88 c1.04,0.43,1.67,1.43,1.68,2.49c1.9,0.42,3.71,0.96,5.41,1.67c0.48,0.2,0.93,0.42,1.36,0.66c0.06,0.03,0.11,0.06,0.16,0.1 c2.63,1.55,4.32,3.89,5.08,6.52c0.75,2.61,0.57,5.51-0.54,8.18c-0.15,0.36-0.31,0.72-0.49,1.06l-7.65,40.43 c-0.22,1.17-1.16,2.02-2.28,2.18v0l-54.33,7.72c-1.48,0.21-2.85-0.82-3.06-2.3c-0.04-0.26-0.04-0.52,0-0.77l0,0l0.45-3.09 c-4.39,0.33-8.71,0.49-13.03,0.76c-1.49,0.09-2.78-1.04-2.87-2.53c-0.01-0.18,0-0.36,0.02-0.53L38.87,71.05L38.87,71.05z M53.15,69.89c0.2-0.01,0.41,0,0.6,0.03l0.39-0.03c0.41-0.03,0.8,0.03,1.16,0.17L59.99,38c-0.92-0.99-1.62-1.97-2.12-2.93 c-1.65-3.16-1.35-6.11,0.15-8.78c1.3-2.31,3.53-4.31,6.13-6c3.94-2.57,8.8-4.47,12.19-5.52c3.15-0.98,6.33-1.59,9.48-1.99 c2.12-0.27,4.17-0.44,6.15-0.58c-9.19-1.44-19.29-0.96-27.36,1.56c-3.06,0.96-7.41,2.65-10.85,4.89c-1.92,1.25-3.52,2.64-4.35,4.12 c-0.62,1.11-0.75,2.33-0.07,3.63c0.39,0.76,1.01,1.55,1.88,2.38c0.69,0.56,1.09,1.44,0.99,2.39L48,70.28L53.15,69.89L53.15,69.89z M69.89,37.45l-5.58,39.87l45.79-6.51l7.37-41.1h0c0.05-0.29,0.16-0.57,0.31-0.84c0.16-0.29,0.31-0.58,0.42-0.87 c1-2.42,0.64-6.73-1.81-8.19c-0.04-0.02-0.08-0.04-0.13-0.07c-0.24-0.13-0.49-0.26-0.74-0.36c-11.28-2.79-38.85,0.46-47.33,9.55 c-0.62,1.11-0.75,2.33-0.07,3.63C69.03,34.35,70.25,34.98,69.89,37.45L69.89,37.45z"/></g></svg>