<?xml version="1.0" encoding="utf-8"?><svg version="1.1" id="Layer_1" xmlns="http://www.w3.org/2000/svg" xmlns:xlink="http://www.w3.org/1999/xlink" x="0px" y="0px" viewBox="0 0 122.88 81.62" style="enable-background:new 0 0 122.88 81.62" xml:space="preserve"><style type="text/css">.st0{fill-rule:evenodd;clip-rule:evenodd;}</style><g><path class="st0" d="M61.63,0c4.69,0,8.5,3.8,8.5,8.5c0,2.02-0.71,3.88-1.89,5.34c5.14,0.64,10.21,2.04,14.99,4.19 c17.51,7.87,31.18,25.79,31.2,53.73c0,1.04-0.85,1.89-1.89,1.89v0.01H10.72c-1.05,0-1.9-0.85-1.9-1.9c0-0.06,0-0.12,0.01-0.18 C8.9,43.74,22.56,25.88,40.02,18.03c4.78-2.15,9.85-3.55,14.99-4.19c-1.18-1.46-1.89-3.32-1.89-5.34C53.13,3.8,56.93,0,61.63,0 L61.63,0z M1.9,81.62c-1.05,0-1.9-0.85-1.9-1.9c0-1.05,0.85-1.9,1.9-1.9h119.09c1.05,0,1.9,0.85,1.9,1.9c0,1.05-0.85,1.9-1.9,1.9 H1.9L1.9,81.62z M12.63,69.86h97.99c-0.61-25.13-13.08-41.25-28.93-48.38c-6.32-2.84-13.19-4.26-20.06-4.26 c-6.88,0-13.74,1.42-20.06,4.26C25.71,28.61,13.24,44.73,12.63,69.86L12.63,69.86z M24.34,57.73c-0.31,1-1.37,1.56-2.37,1.25 c-1-0.31-1.56-1.37-1.25-2.37c1.9-6.07,4.88-11.08,8.85-15.13c3.96-4.03,8.87-7.08,14.63-9.25c0.98-0.37,2.07,0.13,2.44,1.1 c0.37,0.98-0.13,2.07-1.1,2.44c-5.25,1.98-9.71,4.73-13.27,8.36C28.73,47.74,26.05,52.24,24.34,57.73L24.34,57.73z"/></g></svg>